<svg width="150" height="29" fill="none" xmlns="http://www.w3.org/2000/svg"><path d="M0 8.294h4.888l4.001 11.338 4.306-11.338h2.99l4.227 11.21 4.007-11.21h4.92l-7.262 19.93h-3.165L14.67 16.866l-4.371 11.356H7.17L0 8.294zM32.183.601h4.956v9.708a11.39 11.39 0 012.945-1.896 7.596 7.596 0 013-.632 6.751 6.751 0 014.993 2.052c1.158 1.185 1.737 2.925 1.738 5.22v13.17h-4.92v-8.737a21.573 21.573 0 00-.33-4.69 3.27 3.27 0 00-1.125-1.83 3.155 3.155 0 00-1.966-.605 3.705 3.705 0 00-2.606 1.007 5.337 5.337 0 00-1.51 2.748 22.717 22.717 0 00-.219 4.103v8.004h-4.956V.601zm26.905 10.194c0-.663-.263-1.3-.732-1.768a2.495 2.495 0 00-4.263 1.768v17.428h4.994V10.795zm35.704 8.91H78.75a5.352 5.352 0 001.855 3.38 5.825 5.825 0 003.851 1.255 6.649 6.649 0 004.81-1.96l4.208 1.978a9.94 9.94 0 01-3.768 3.307 11.78 11.78 0 01-5.213 1.071 10.29 10.29 0 01-7.627-2.958 10.07 10.07 0 01-2.946-7.41 10.427 10.427 0 012.937-7.574 9.863 9.863 0 017.362-3.013 10.211 10.211 0 017.645 3.013c1.963 2.01 2.945 4.662 2.945 7.96l-.018.952zm-4.994-3.937a5.018 5.018 0 00-1.951-2.711 5.65 5.65 0 00-3.38-1.045 5.977 5.977 0 00-3.665 1.173 6.534 6.534 0 00-1.832 2.583h10.828zM69.221 8.294V.95h-4.993v27.274h4.993V12.6h2.963V8.294h-2.963z" fill="#fff"/><path d="M126.652 1.28h5.085v26.944h-5.085V1.28zm8.195 0h14.87v5.055h-4.902v21.889h-5.194V6.334h-4.774V1.28zm-24.388 9.9l-.495.97a1.783 1.783 0 00-.12.272.624.624 0 00.154.628.634.634 0 001.092-.442.639.639 0 00-.181-.46.598.598 0 00-.325-.176l.297-.58-.422-.212zm.15 1.423a.17.17 0 01-.012.067.163.163 0 01-.035.057.145.145 0 01-.109.05.138.138 0 01-.059-.014.137.137 0 01-.049-.037.186.186 0 01-.047-.123.182.182 0 01.045-.123.129.129 0 01.048-.035.134.134 0 01.057-.011.145.145 0 01.114.046.16.16 0 01.036.057.185.185 0 01.011.066zm2.198-8.911l-.799 1.19-.012.02v.412h.784v.37h.481v-.37h.16V4.85h-.16V3.692h-.454zm-.224 1.158l.197-.29v.29h-.197zm-10.239 15.727l.654-1.343h-.708v-.469h1.325l-.008.286-.842 1.73-.421-.204zm8.238 4.665a.243.243 0 00.005-.314.155.155 0 00-.095-.056.156.156 0 00-.107.02.33.33 0 00-.087.068l-.03.031-.389-.087.245-1.13h.975v.465h-.601l-.037.162h.02a.612.612 0 01.459.19.65.65 0 01.183.478.683.683 0 01-.687.697.694.694 0 01-.441-.146.686.686 0 01-.242-.4l-.02-.09h.496l.02.04a.25.25 0 00.085.1.196.196 0 00.248-.028zm-.228-9.679a.6.6 0 00.186-.45.637.637 0 00-.505-.635l.297-.58-.422-.213-.496.97a1.887 1.887 0 00-.12.272.624.624 0 00.361.77.636.636 0 00.699-.134zm-.606-.455a.174.174 0 01.045-.123.14.14 0 01.106-.046.148.148 0 01.113.046.166.166 0 01.047.122.19.19 0 01-.011.068.167.167 0 01-.036.057.142.142 0 01-.217 0 .168.168 0 01-.047-.124zm10.512 5.603v-.369h.158v-.464h-.158V18.72h-.454l-.801 1.19-.012.02v.412h.785v.37h.482zm-.68-.833l.198-.29v.29h-.198zm-10.692-4.206a.585.585 0 00.238-.226.64.64 0 00.012-.627.617.617 0 00-.145-.178.625.625 0 00.09-.143.5.5 0 00.042-.209.589.589 0 00-.078-.293.55.55 0 00-.217-.212.715.715 0 00-.629 0 .551.551 0 00-.297.5.543.543 0 00.13.36.66.66 0 00-.145.184.653.653 0 00.017.624.573.573 0 00.237.224.855.855 0 00.378.071.806.806 0 00.367-.075zm-.286-1.266a.126.126 0 01-.14.026.13.13 0 01-.076-.12c0-.017.002-.034.008-.05a.117.117 0 01.027-.04.1.1 0 01.039-.027.106.106 0 01.046-.008.13.13 0 01.097.035.122.122 0 01.034.088.151.151 0 01-.008.051.13.13 0 01-.027.045zm-.242.56a.229.229 0 01.159-.057.216.216 0 01.152.055.183.183 0 01.043.06c.01.024.015.049.014.074a.152.152 0 01-.012.07.18.18 0 01-.041.057.264.264 0 01-.317-.004.165.165 0 01-.057-.13.15.15 0 01.016-.07.153.153 0 01.044-.055h-.001zm4.718 10.755v-1.478h-.428l.288-.468h.626v1.946h-.486zm-5.977-1.358a.525.525 0 00-.154.382.571.571 0 00.068.284c.045.08.112.147.193.19a.61.61 0 00.523.022.907.907 0 00.249-.188l.054-.052.334.348-.052.05c-.114.12-.249.217-.399.286a1.096 1.096 0 01-.433.081 1 1 0 01-.737-.287 1.075 1.075 0 01-.157-1.25.976.976 0 01.375-.363 1.08 1.08 0 01.982-.036c.147.066.276.164.38.286l.046.054-.344.327-.05-.054a.658.658 0 00-.495-.235.522.522 0 00-.382.155h-.001zm1.954 1.403a.628.628 0 00.634-.634.62.62 0 00-.18-.46.598.598 0 00-.325-.176l.297-.58-.423-.212-.494.97a1.69 1.69 0 00-.12.272.638.638 0 00.019.427.613.613 0 00.135.2.602.602 0 00.457.193zm-.158-.64a.174.174 0 01.045-.123.138.138 0 01.106-.046.147.147 0 01.114.047.16.16 0 01.046.122.17.17 0 01-.011.067.163.163 0 01-.085.094.143.143 0 01-.167-.037.164.164 0 01-.036-.057.17.17 0 01-.012-.067zm5.202.46l.656-1.343h-.71v-.468h1.325l-.006.285-.844 1.731-.421-.205zm-2.28-10.785a1.81 1.81 0 00.121-.27.633.633 0 00-.48-.809.635.635 0 00-.766.625.635.635 0 00.181.458.598.598 0 00.326.176l-.299.58.423.211.494-.97zm-.332-.45a.178.178 0 01-.046.122.154.154 0 01-.11.046.15.15 0 01-.109-.048.161.161 0 01-.047-.121.17.17 0 01.098-.16.15.15 0 01.061-.012.142.142 0 01.105.048.165.165 0 01.036.058.172.172 0 01.012.067zm-2.306-1.633a.244.244 0 00.006-.314.158.158 0 00-.202-.037.328.328 0 00-.087.07l-.03.03-.389-.088.245-1.128h.974v.464h-.601l-.036.162h.02a.61.61 0 01.459.19.651.651 0 01.182.478.664.664 0 01-.199.495.662.662 0 01-.488.202.694.694 0 01-.44-.146.686.686 0 01-.242-.4l-.02-.09h.495l.021.04a.24.24 0 00.084.1.197.197 0 00.249-.028h-.001zm10.532 4.534c-.009.194.02.39.084.574.047.128.131.24.242.32.114.073.248.11.382.106a.646.646 0 00.379-.106.698.698 0 00.237-.326c.112-.38.113-.785.002-1.166a.688.688 0 00-.247-.33.662.662 0 00-.38-.108.621.621 0 00-.534.276 1.368 1.368 0 00-.165.76zm.489.007a1.603 1.603 0 01.033-.379.286.286 0 01.079-.154.16.16 0 01.105-.038c.037 0 .092.011.144.099.06.142.084.298.07.452a.96.96 0 01-.079.46.151.151 0 01-.055.065.142.142 0 01-.08.024.165.165 0 01-.147-.096.87.87 0 01-.07-.433zM102.906 6.17l-.495.97a1.693 1.693 0 00-.12.272.64.64 0 00.019.426.612.612 0 00.135.202.635.635 0 001.092-.442.637.637 0 00-.506-.635l.298-.58-.423-.213zm.149 1.422a.167.167 0 01-.096.16.14.14 0 01-.119 0 .143.143 0 01-.048-.036.187.187 0 01-.003-.247.135.135 0 01.106-.046c.022 0 .043.003.062.011.02.008.038.02.052.036a.16.16 0 01.046.122zm.005 5.132a.197.197 0 00.044-.067.183.183 0 00-.066-.218.426.426 0 00-.262-.071l-.073-.001v-.434l.068-.005a.466.466 0 00.158-.032.157.157 0 00.065-.053.118.118 0 00.021-.066.08.08 0 00-.007-.037.073.073 0 00-.022-.031.114.114 0 00-.084-.028.145.145 0 00-.089.03.167.167 0 00-.056.078l-.016.051h-.466l.011-.082a.61.61 0 01.628-.554.598.598 0 01.549.336.502.502 0 01-.033.472.503.503 0 01-.096.106.521.521 0 01.266.471.612.612 0 01-.202.463.704.704 0 01-.504.19.663.663 0 01-.477-.18.697.697 0 01-.203-.48l-.005-.077h.48l.01.062a.26.26 0 00.073.164.225.225 0 00.288-.007zm4.167-8.21a.414.414 0 00.059-.19.159.159 0 00-.107-.156.182.182 0 00-.138.006.175.175 0 00-.057.042.267.267 0 00-.059.175l-.002.072h-.482l.004-.077c0-.19.073-.371.203-.507a.681.681 0 01.487-.188.657.657 0 01.323.077.587.587 0 01.229.229.594.594 0 01.085.301.87.87 0 01-.098.377 1.97 1.97 0 01-.345.455l-.085.089h.542v.463h-1.39v-.267l.576-.59c.098-.092.184-.196.255-.31zm.431 6.665l-.495.97a1.69 1.69 0 00-.12.272.638.638 0 00.02.427.59.59 0 00.134.201.634.634 0 001.092-.442.639.639 0 00-.181-.46.598.598 0 00-.325-.176l.298-.58-.423-.212zm.149 1.423a.166.166 0 01-.046.124.149.149 0 01-.109.05.143.143 0 01-.108-.05.192.192 0 01-.048-.124.19.19 0 01.045-.123.138.138 0 01.106-.046.14.14 0 01.114.047.16.16 0 01.046.122zm-.699 8.597l-.495.97a1.792 1.792 0 00-.12.272.672.672 0 00-.027.189.606.606 0 00.182.439.628.628 0 00.694.147.635.635 0 00.397-.59.657.657 0 00-.043-.248.64.64 0 00-.463-.387l.298-.58-.423-.212zm.15 1.422a.17.17 0 01-.047.125.136.136 0 01-.049.036.14.14 0 01-.119 0 .147.147 0 01-.049-.037.187.187 0 01-.002-.247.136.136 0 01.106-.046.14.14 0 01.061.011c.021.008.038.02.052.036a.166.166 0 01.047.122zm-4.965-4.796c.047.128.131.24.242.32.114.073.248.11.382.106a.642.642 0 00.378-.106.7.7 0 00.238-.326 1.16 1.16 0 00.058-.217v.235h.785v.369h.481v-.37h.16v-.463h-.16v-1.158h-.454l-.79 1.175c.003-.05.004-.101.004-.157a1.63 1.63 0 00-.082-.58.688.688 0 00-.247-.329.661.661 0 00-.38-.11.616.616 0 00-.535.277 1.367 1.367 0 00-.164.76c-.009.195.02.39.084.574zm1.885-.452l.198-.29v.29h-.198zm-1.48-.115a1.604 1.604 0 01.033-.379.286.286 0 01.079-.154.158.158 0 01.105-.038c.037 0 .092.011.144.099.06.143.084.298.07.452a.95.95 0 01-.08.46.145.145 0 01-.134.088.17.17 0 01-.088-.026.17.17 0 01-.059-.07.87.87 0 01-.07-.432zm4.41-3.574l-.495.97a1.787 1.787 0 00-.12.272.672.672 0 00-.027.19.606.606 0 00.182.438.627.627 0 00.694.148.635.635 0 00.397-.59.64.64 0 00-.506-.635l.298-.58-.423-.213zm.15 1.423a.17.17 0 01-.047.124.136.136 0 01-.049.037.139.139 0 01-.119 0 .147.147 0 01-.049-.037.187.187 0 01-.002-.247.135.135 0 01.106-.046.14.14 0 01.061.01c.021.009.038.02.052.036a.166.166 0 01.047.122zm-1.536-4.345l.495-.971c.048-.087.087-.177.12-.27a.627.627 0 00-.154-.628.634.634 0 00-1.091.443.617.617 0 00.18.458.601.601 0 00.327.177l-.299.58.422.211zm-.149-1.422a.169.169 0 01.098-.16.14.14 0 01.118 0 .151.151 0 01.047.036.167.167 0 01.037.057.19.19 0 01.01.067.168.168 0 01-.045.123.149.149 0 01-.169.033.158.158 0 01-.085-.09.164.164 0 01-.011-.066zm8.688.88a.197.197 0 00.044-.068.182.182 0 00-.066-.217.426.426 0 00-.262-.072h-.073v-.435l.068-.005a.476.476 0 00.159-.032.16.16 0 00.064-.053.117.117 0 00.021-.065.08.08 0 00-.007-.038.073.073 0 00-.022-.03.104.104 0 00-.039-.023.108.108 0 00-.044-.006.146.146 0 00-.09.03.166.166 0 00-.056.079l-.016.051h-.466l.011-.083a.613.613 0 01.628-.553.597.597 0 01.549.336.502.502 0 01-.033.472.499.499 0 01-.096.106.523.523 0 01.266.47.601.601 0 01-.202.463.704.704 0 01-.504.19.66.66 0 01-.477-.179.697.697 0 01-.203-.48l-.004-.077h.479l.01.062c.005.061.03.119.072.164a.226.226 0 00.289-.007zm-10.644-2.615a.653.653 0 00.087.332.572.572 0 00.236.224.86.86 0 00.378.07.802.802 0 00.367-.074.578.578 0 00.238-.227.64.64 0 00.013-.626.603.603 0 00-.146-.178.515.515 0 00.132-.353.569.569 0 00-.295-.504.712.712 0 00-.629-.001.562.562 0 00-.297.5.575.575 0 00.13.36.622.622 0 00-.214.476zm.782-.714a.124.124 0 01-.139.026.126.126 0 01-.076-.12.118.118 0 01.035-.091.105.105 0 01.084-.034.128.128 0 01.097.035.097.097 0 01.026.04.111.111 0 01.008.047.13.13 0 01-.008.052.13.13 0 01-.027.045zm-.082.503a.214.214 0 01.151.055.172.172 0 01.058.133.153.153 0 01-.013.07.155.155 0 01-.041.057.262.262 0 01-.317-.003.178.178 0 01-.043-.06.166.166 0 01.003-.14.14.14 0 01.043-.055.227.227 0 01.159-.057zm-.011 1.28l-.494.97a1.694 1.694 0 00-.12.273.638.638 0 00.019.427.613.613 0 00.135.2.628.628 0 00.695.149.637.637 0 00.396-.59.657.657 0 00-.043-.249.653.653 0 00-.137-.211.598.598 0 00-.325-.176l.297-.58-.423-.212zm.15 1.423a.18.18 0 01-.046.124.15.15 0 01-.109.05.146.146 0 01-.06-.013.134.134 0 01-.048-.037.187.187 0 01-.003-.247.138.138 0 01.106-.046.145.145 0 01.114.047.16.16 0 01.046.122zm1.37 6.941a.413.413 0 00.059-.19.16.16 0 00-.107-.156.18.18 0 00-.195.048.267.267 0 00-.059.175l-.002.072h-.481l.003-.077c0-.19.073-.371.204-.508a.668.668 0 01.486-.187.656.656 0 01.323.077.59.59 0 01.23.228.603.603 0 01.084.302.87.87 0 01-.098.377 1.974 1.974 0 01-.345.455l-.084.089h.542v.463h-1.391v-.268l.576-.589c.098-.092.184-.196.255-.31zm-.119-10.868l-.494.97a1.694 1.694 0 00-.12.272.638.638 0 00.019.426.612.612 0 00.135.202.628.628 0 00.694.147.635.635 0 00.397-.59.657.657 0 00-.043-.248.653.653 0 00-.137-.211.6.6 0 00-.326-.176l.298-.58-.423-.212zm.15 1.422a.17.17 0 01-.047.125.141.141 0 01-.168.036.148.148 0 01-.049-.037.191.191 0 01-.047-.123c0-.045.016-.09.045-.124a.138.138 0 01.106-.046.148.148 0 01.113.047.178.178 0 01.037.056.184.184 0 01.01.066zm-2.112 7.974l.654-1.343h-.708v-.468h1.325l-.008.285-.842 1.731-.421-.205zm1.313-3.346a1 1 0 01.131-.515.975.975 0 01.375-.364 1.08 1.08 0 01.982-.036c.147.067.276.164.381.287l.045.053-.343.327-.051-.054a.656.656 0 00-.495-.235.529.529 0 00-.537.537.571.571 0 00.068.284.483.483 0 00.194.191.611.611 0 00.523.021.899.899 0 00.248-.188l.054-.052.334.348-.052.051c-.114.12-.249.216-.399.285a1.097 1.097 0 01-.433.081 1.005 1.005 0 01-.737-.287.98.98 0 01-.288-.734zm2.119 5.986h.482v-.37h.16v-.463h-.16v-1.158h-.454l-.8 1.19-.012.019v.413h.784v.369zm-.197-.833l.197-.29v.29h-.197zm-3.134-4.324a.635.635 0 001.091-.442.657.657 0 00-.043-.249.654.654 0 00-.137-.211.598.598 0 00-.325-.176l.297-.58-.422-.212-.495.97a1.693 1.693 0 00-.12.272.639.639 0 00.019.427.612.612 0 00.135.201zm.299-.447a.174.174 0 01.045-.123.138.138 0 01.106-.046.145.145 0 01.114.046.16.16 0 01.046.123.17.17 0 01-.011.066.164.164 0 01-.085.095.14.14 0 01-.119 0 .134.134 0 01-.048-.038.164.164 0 01-.036-.057.17.17 0 01-.012-.066zm2.597 8.082a.856.856 0 00.378.072.807.807 0 00.367-.075.585.585 0 00.238-.227.64.64 0 00.012-.626.6.6 0 00-.145-.178.634.634 0 00.09-.144.5.5 0 00.042-.209.589.589 0 00-.078-.292.55.55 0 00-.217-.213.713.713 0 00-.629 0 .541.541 0 00-.219.207.57.57 0 00.052.654.622.622 0 00-.214.476.653.653 0 00.087.332.566.566 0 00.236.223zm.459-1.27a.127.127 0 01-.216-.094.118.118 0 01.074-.117.107.107 0 01.046-.007.127.127 0 01.097.034c.011.012.02.025.026.04a.129.129 0 01.008.048.13.13 0 01-.035.096zm-.082.504a.214.214 0 01.151.055.185.185 0 01.044.06.2.2 0 01.001.143.167.167 0 01-.041.057.265.265 0 01-.317-.003.166.166 0 01-.057-.131.15.15 0 01.016-.07.225.225 0 01.203-.112zm-1.782 3.236a.67.67 0 00.382.107.644.644 0 00.378-.107.698.698 0 00.237-.326 2.07 2.07 0 00.002-1.165.676.676 0 00-.247-.33.66.66 0 00-.38-.109.622.622 0 00-.534.276 1.367 1.367 0 00-.164.76c-.009.195.02.39.083.574.047.129.132.24.243.32zm.162-.887a1.657 1.657 0 01.033-.378.3.3 0 01.079-.154.162.162 0 01.106-.038c.037 0 .092.01.144.098a.97.97 0 01.07.452.974.974 0 01-.08.461.145.145 0 01-.134.088.163.163 0 01-.147-.096.87.87 0 01-.071-.433zm-3.206-11.957a.68.68 0 00.242.32c.114.074.248.11.382.107a.644.644 0 00.378-.107.7.7 0 00.238-.325 1.62 1.62 0 00.084-.586 1.63 1.63 0 00-.082-.58.688.688 0 00-.247-.33.662.662 0 00-.38-.109.617.617 0 00-.535.276 1.367 1.367 0 00-.164.76c-.009.195.02.39.084.574zm.405-.567a1.603 1.603 0 01.033-.378.286.286 0 01.079-.154.158.158 0 01.105-.038c.037 0 .092.01.144.098.06.143.084.298.07.452a.95.95 0 01-.08.461.145.145 0 01-.134.088.17.17 0 01-.088-.026.17.17 0 01-.059-.07.87.87 0 01-.07-.433zm-.405 5.577c.047.128.131.24.242.32.114.073.248.11.382.106a.642.642 0 00.378-.106.7.7 0 00.238-.326c.112-.38.112-.785.002-1.166a.688.688 0 00-.247-.33.662.662 0 00-.38-.109.617.617 0 00-.535.277 1.367 1.367 0 00-.164.76c-.009.194.02.39.084.574zm.405-.567a1.604 1.604 0 01.033-.379.286.286 0 01.079-.154.159.159 0 01.105-.038c.037 0 .092.011.144.099.06.142.084.297.07.452a.95.95 0 01-.08.46.142.142 0 01-.054.065.144.144 0 01-.08.024.17.17 0 01-.088-.027.17.17 0 01-.059-.07.87.87 0 01-.07-.432zm4.425-6.496l.495-.971c.047-.087.087-.177.12-.27a.627.627 0 00-.154-.628.634.634 0 00-1.092.443.635.635 0 00.507.635l-.298.58.422.211zm-.149-1.422a.153.153 0 01.011-.067.164.164 0 01.087-.093.141.141 0 01.118 0 .14.14 0 01.047.036.17.17 0 01.047.124.172.172 0 01-.045.123.146.146 0 01-.11.046.15.15 0 01-.109-.048.16.16 0 01-.046-.121zm-1.829 8.731l.655-1.343h-.708v-.468h1.325l-.008.285-.843 1.731-.421-.205zm1.347-6.82h1.326l-.008.285-.843 1.731-.421-.205.655-1.343h-.709v-.469zm-1.507 14.47h-1.391v-.268l.576-.59c.099-.092.184-.196.256-.31a.425.425 0 00.058-.19.16.16 0 00-.107-.156.183.183 0 00-.138.006.183.183 0 00-.056.041.263.263 0 00-.06.176l-.002.071h-.481l.003-.077a.73.73 0 01.204-.507.668.668 0 01.486-.188.655.655 0 01.323.078.588.588 0 01.23.228.603.603 0 01.084.301.87.87 0 01-.098.377 1.972 1.972 0 01-.345.456l-.084.088h.542v.463zm.023-4.166l-.842 1.73-.421-.204.654-1.343h-.708v-.469h1.325l-.008.286zm.699-.356l-.494.97a1.698 1.698 0 00-.12.271.639.639 0 00.019.427.614.614 0 00.135.202.629.629 0 00.694.147.635.635 0 00.397-.59.657.657 0 00-.043-.248.653.653 0 00-.137-.212.6.6 0 00-.326-.175l.298-.58-.423-.212zm.15 1.422a.17.17 0 01-.047.124.142.142 0 01-.168.036.147.147 0 01-.049-.036.19.19 0 01-.047-.123.19.19 0 01.045-.124.138.138 0 01.106-.046.148.148 0 01.113.047.18.18 0 01.037.056.184.184 0 01.01.066zm-2.273-14.434h-1.391v-.268l.576-.589c.099-.092.184-.196.256-.31a.425.425 0 00.058-.19.159.159 0 00-.107-.157.178.178 0 00-.194.048.262.262 0 00-.06.175l-.002.072h-.481l.003-.077a.73.73 0 01.204-.507.671.671 0 01.486-.188.66.66 0 01.324.077.594.594 0 01.229.229.614.614 0 01.085.301.87.87 0 01-.099.377 1.945 1.945 0 01-.345.455l-.084.089h.542v.463zm.815-3.983h-.708v-.468h1.325l-.008.286-.842 1.73-.421-.204.654-1.344zm-1.401 0h-.708v-.468h1.325l-.007.286-.843 1.73-.421-.204.654-1.344zm.82 23.888a.696.696 0 01-.203-.48l-.005-.078h.48l.009.062c.005.062.031.12.074.164a.222.222 0 00.288-.007.197.197 0 00.044-.068.182.182 0 00-.012-.157.193.193 0 00-.054-.06.425.425 0 00-.262-.071l-.073-.001v-.435l.068-.005a.47.47 0 00.158-.031.154.154 0 00.064-.054.11.11 0 00.022-.065.08.08 0 00-.007-.037.083.083 0 00-.022-.031.114.114 0 00-.084-.028.144.144 0 00-.089.03.16.16 0 00-.056.078l-.016.051h-.466l.011-.082a.611.611 0 01.628-.554.598.598 0 01.549.336.52.52 0 01.044.212.46.46 0 01-.173.366.524.524 0 01.266.471.612.612 0 01-.202.463.703.703 0 01-.504.189.656.656 0 01-.478-.178h.001zm-.916.178a.628.628 0 00.587-.391.654.654 0 00.048-.243.639.639 0 00-.181-.46.598.598 0 00-.325-.176l.298-.58-.423-.212-.495.97a1.693 1.693 0 00-.12.272.639.639 0 00.019.427.612.612 0 00.135.2.6.6 0 00.457.193zm-.158-.64a.179.179 0 01.045-.123.135.135 0 01.106-.046c.022 0 .043.003.062.011a.14.14 0 01.052.036.16.16 0 01.046.122.166.166 0 01-.096.16.14.14 0 01-.119.001.143.143 0 01-.048-.037.165.165 0 01-.036-.057.17.17 0 01-.012-.067zm-.454 1.154h1.325l-.008.285-.842 1.731-.421-.205.654-1.343h-.708v-.468zm3.414-23.057a.628.628 0 00.586-.39.616.616 0 00.048-.244.657.657 0 00-.043-.248.653.653 0 00-.137-.212.6.6 0 00-.326-.175l.298-.58-.423-.213-.494.97a1.791 1.791 0 00-.121.272.673.673 0 00-.027.19.606.606 0 00.182.438.601.601 0 00.457.192zm-.158-.64a.174.174 0 01.045-.122.138.138 0 01.106-.046.148.148 0 01.113.046.178.178 0 01.037.057.185.185 0 01.01.066.17.17 0 01-.047.124.141.141 0 01-.168.036.148.148 0 01-.049-.036.162.162 0 01-.035-.058.17.17 0 01-.012-.066zm-3.104 20.533a.685.685 0 01-.242-.401l-.021-.09h.496l.021.041a.24.24 0 00.084.1.197.197 0 00.249-.029.247.247 0 00.005-.313.156.156 0 00-.202-.037.33.33 0 00-.087.069l-.029.03-.39-.087.245-1.129h.974v.464h-.601l-.036.163h.02a.607.607 0 01.459.19.65.65 0 01.183.478.683.683 0 01-.2.494.659.659 0 01-.488.203.693.693 0 01-.44-.146zm2.494-18.985a.688.688 0 00-.247-.33.665.665 0 00-.381-.11.616.616 0 00-.534.277 1.367 1.367 0 00-.164.76c-.009.195.02.39.084.574.046.129.131.24.242.32a.67.67 0 00.382.106.642.642 0 00.378-.106.7.7 0 00.238-.326c.026-.07.046-.143.058-.217v.235h.784v.37h.482v-.37h.16V4.85h-.16V3.692h-.454l-.79 1.175c.003-.05.004-.101.004-.156a1.63 1.63 0 00-.082-.58zm-.406.584a.961.961 0 01-.08.46.145.145 0 01-.134.088.163.163 0 01-.147-.096.87.87 0 01-.071-.432 1.657 1.657 0 01.033-.378.294.294 0 01.08-.154.157.157 0 01.105-.039c.037 0 .092.011.144.099a.97.97 0 01.07.452zm1.049.135l.197-.29v.29h-.197zm5.025.332l-.02-.09h.496l.021.04a.234.234 0 00.084.1.196.196 0 00.248-.028.242.242 0 00.005-.314.158.158 0 00-.202-.037.329.329 0 00-.087.07l-.029.03-.39-.087.245-1.129h.975V4.2h-.6l-.037.163h.019a.622.622 0 01.46.189c.06.063.108.138.14.22a.67.67 0 01.042.258.683.683 0 01-.687.697.697.697 0 01-.441-.146.69.69 0 01-.242-.4zm.799-3.482h-.709v-.468h1.325l-.006.286-.844 1.73-.421-.204.655-1.344zm-1.603.757l-.299.58.423.212.495-.972a1.78 1.78 0 00.12-.27.634.634 0 00-.48-.809.634.634 0 00-.766.625.635.635 0 00.507.634zm-.025-.63a.188.188 0 01.01-.067.166.166 0 01.037-.057.148.148 0 01.168-.036c.019.008.035.02.048.036a.164.164 0 01.036.057.172.172 0 01.012.067.173.173 0 01-.046.122.148.148 0 01-.109.047.15.15 0 01-.11-.048.16.16 0 01-.046-.122zm2.221.57v.412h.784v.37h.481v-.37h.16v-.464h-.16V1.187h-.454l-.799 1.19-.012.02zm.587-.052l.197-.29v.29h-.197zm-4.077.878a.632.632 0 00.634-.634.639.639 0 00-.181-.46.598.598 0 00-.325-.175l.298-.58-.423-.213-.495.97a1.786 1.786 0 00-.12.272.673.673 0 00-.027.19.606.606 0 00.181.438.605.605 0 00.458.192zm-.158-.64a.17.17 0 01.092-.157.143.143 0 01.059-.011.14.14 0 01.061.01.16.16 0 01.098.158.167.167 0 01-.046.124.146.146 0 01-.109.05.144.144 0 01-.108-.05.168.168 0 01-.047-.124zm-1.606.57a.858.858 0 00.378.07.807.807 0 00.367-.074.585.585 0 00.238-.227.64.64 0 00.012-.627.616.616 0 00-.145-.177.628.628 0 00.09-.144.5.5 0 00.042-.209.59.59 0 00-.078-.293.55.55 0 00-.217-.212.715.715 0 00-.629 0 .54.54 0 00-.219.206.57.57 0 00.052.654.622.622 0 00-.214.476.643.643 0 00.087.332.566.566 0 00.236.224zm.459-1.27a.123.123 0 01-.089.036.127.127 0 01-.118-.08.147.147 0 01-.001-.1.117.117 0 01.027-.042.108.108 0 01.085-.033.128.128 0 01.097.034c.011.012.02.025.026.04a.128.128 0 01.008.048.13.13 0 01-.035.096zm-.082.502a.214.214 0 01.151.056.182.182 0 01.058.133.167.167 0 01-.054.127.265.265 0 01-.317-.004.164.164 0 01-.043-.059.176.176 0 01.002-.14.153.153 0 01.044-.056.226.226 0 01.159-.057zm1.941 1.307h-.454l-.8 1.19-.012.02v.412h.784v.37h.481v-.37h.16V4.85h-.16l.001-1.158zm-.68 1.158l.198-.29v.29h-.198zm1.42.112l-.299.58.423.212.495-.972c.047-.086.088-.177.12-.27a.633.633 0 00-.48-.808.634.634 0 00-.766.624.635.635 0 00.181.458.598.598 0 00.326.176zm-.025-.63a.188.188 0 01.01-.067.166.166 0 01.037-.057.148.148 0 01.112-.049c.019 0 .039.005.056.013.019.009.035.02.048.036a.164.164 0 01.036.057.171.171 0 01.012.067.173.173 0 01-.046.122.148.148 0 01-.109.047.148.148 0 01-.11-.048.16.16 0 01-.046-.122zm9.472 19.507a.665.665 0 00-.382-.11.615.615 0 00-.533.277 1.376 1.376 0 00-.165.76c-.008.194.02.389.084.574.046.128.131.24.243.32a.67.67 0 00.382.106.638.638 0 00.377-.106.702.702 0 00.239-.326 2.09 2.09 0 00.001-1.166.68.68 0 00-.246-.33zm-.16.913a.973.973 0 01-.079.462.146.146 0 01-.134.088.164.164 0 01-.148-.096.859.859 0 01-.07-.433 1.602 1.602 0 01.033-.379.293.293 0 01.079-.154.16.16 0 01.106-.038c.036 0 .091.01.143.099a.94.94 0 01.07.451zm-2.038 3.01h.543v.464h-1.391v-.268l.576-.589c.099-.092.185-.197.256-.31a.412.412 0 00.058-.19.16.16 0 00-.107-.157.178.178 0 00-.195.048.278.278 0 00-.059.175l-.002.071h-.482l.004-.077c0-.189.073-.37.204-.507a.672.672 0 01.486-.188.6.6 0 01.553.306.594.594 0 01.085.302.87.87 0 01-.099.377 2 2 0 01-.345.455l-.085.088zm.55-2.505h.543v.464h-1.392v-.268l.577-.59a1.56 1.56 0 00.256-.31.424.424 0 00.057-.19.158.158 0 00-.01-.064.155.155 0 00-.037-.055.17.17 0 00-.06-.037.186.186 0 00-.138.006.184.184 0 00-.056.042.273.273 0 00-.06.175l-.002.071h-.481l.004-.077a.727.727 0 01.204-.507.662.662 0 01.485-.188.666.666 0 01.325.078.591.591 0 01.228.228.594.594 0 01.085.302.856.856 0 01-.098.377 1.976 1.976 0 01-.346.455l-.084.088zM114.237 27l.297-.58-.422-.212-.495.97a1.69 1.69 0 00-.12.272.624.624 0 00.154.628.635.635 0 001.092-.442.638.638 0 00-.181-.46.601.601 0 00-.325-.176zm.025.63a.17.17 0 01-.012.067.153.153 0 01-.036.058.143.143 0 01-.108.05.141.141 0 01-.108-.05.186.186 0 01-.047-.124.182.182 0 01.045-.123.129.129 0 01.048-.035.13.13 0 01.057-.012.15.15 0 01.114.047.16.16 0 01.036.056.185.185 0 01.011.066zm-10.571-1.351h1.325l-.008.285-.842 1.731-.421-.205.654-1.343h-.708v-.468zm10.235-21.816h-.481l.003-.077c0-.19.073-.371.205-.507a.667.667 0 01.485-.188.661.661 0 01.324.077.587.587 0 01.229.229.594.594 0 01.085.301.87.87 0 01-.099.377 1.97 1.97 0 01-.345.455l-.084.089h.543v.463h-1.392v-.267l.576-.59c.099-.092.185-.196.257-.31a.423.423 0 00.057-.19.16.16 0 00-.107-.157.177.177 0 00-.194.048.273.273 0 00-.06.176l-.002.07zm7.633 15.198a.592.592 0 00-.324-.175l.297-.58-.422-.212-.495.97a1.792 1.792 0 00-.12.271.639.639 0 00.019.427.643.643 0 00.83.349.632.632 0 00.397-.59.639.639 0 00-.182-.46zm-.3.455a.153.153 0 01-.01.067.206.206 0 01-.036.058.147.147 0 01-.109.049.152.152 0 01-.109-.05.188.188 0 01-.001-.247.133.133 0 01.105-.046.148.148 0 01.114.047.195.195 0 01.036.056.149.149 0 01.01.066zm-2.114 2.636h.542v.463h-1.39v-.267l.576-.59c.098-.092.184-.196.255-.31a.414.414 0 00.059-.19.16.16 0 00-.047-.12.183.183 0 00-.198-.03.176.176 0 00-.057.041.267.267 0 00-.059.176l-.003.071h-.481l.003-.077c0-.19.074-.371.204-.507a.678.678 0 01.486-.188.661.661 0 01.324.078.592.592 0 01.229.228.594.594 0 01.085.301.87.87 0 01-.098.377 1.948 1.948 0 01-.346.456l-.084.088zm1.647-1.419a.663.663 0 00-.38-.109.622.622 0 00-.534.276 1.367 1.367 0 00-.165.76c-.008.195.02.39.084.574a.68.68 0 00.242.32c.114.073.248.11.382.107a.645.645 0 00.379-.107.698.698 0 00.237-.326 2.07 2.07 0 00.002-1.165.688.688 0 00-.247-.33zm-.159.914a.961.961 0 01-.079.461.148.148 0 01-.135.088.166.166 0 01-.147-.096.87.87 0 01-.07-.433 1.603 1.603 0 01.033-.378.294.294 0 01.079-.154.161.161 0 01.105-.038c.037 0 .092.01.144.098.06.143.084.298.07.452zm-4.639 4.848a.666.666 0 01.183.478.683.683 0 01-.687.697.695.695 0 01-.441-.146.686.686 0 01-.242-.4l-.02-.09h.495l.021.04a.24.24 0 00.084.1.197.197 0 00.249-.028.248.248 0 00.06-.156.25.25 0 00-.055-.158.155.155 0 00-.095-.056.155.155 0 00-.107.02.328.328 0 00-.087.068l-.03.031-.39-.087.245-1.13h.976v.465h-.601l-.037.162h.02a.618.618 0 01.459.19zm-10.162-2.6l.298-.58-.423-.212-.494.97a1.693 1.693 0 00-.12.272.639.639 0 00.019.427.613.613 0 00.135.201.628.628 0 00.694.148.635.635 0 00.397-.59.657.657 0 00-.043-.249.653.653 0 00-.137-.211.6.6 0 00-.326-.176zm.025.63a.17.17 0 01-.047.125.142.142 0 01-.168.036.146.146 0 01-.049-.037.191.191 0 01-.047-.123c0-.045.016-.09.045-.124a.138.138 0 01.106-.046.148.148 0 01.114.047.194.194 0 01.036.056.184.184 0 01.01.067zm1.735 2.04a.63.63 0 00.09-.145.5.5 0 00.042-.208.59.59 0 00-.078-.293.55.55 0 00-.217-.212.715.715 0 00-.629 0 .541.541 0 00-.219.206.57.57 0 00.052.654.621.621 0 00-.214.476.653.653 0 00.087.332.565.565 0 00.236.224.86.86 0 00.378.071.807.807 0 00.367-.075.584.584 0 00.238-.226.64.64 0 00.012-.627.601.601 0 00-.145-.178zm-.391-.236a.124.124 0 01-.089.037.127.127 0 01-.118-.08.147.147 0 01-.001-.1.116.116 0 01.027-.042.108.108 0 01.085-.034.129.129 0 01.097.035.12.12 0 01.026.04.128.128 0 01.008.048.15.15 0 01-.008.051.13.13 0 01-.027.045zm-.241.56a.226.226 0 01.159-.057.214.214 0 01.151.055.187.187 0 01.044.06.2.2 0 01.001.143.167.167 0 01-.041.058.264.264 0 01-.317-.004.165.165 0 01-.043-.059.176.176 0 01.002-.14.154.154 0 01.044-.056zM105.832 27l.298-.58-.423-.212-.494.97a1.69 1.69 0 00-.12.272.639.639 0 00.019.427.612.612 0 00.135.201.627.627 0 00.694.148.635.635 0 00.397-.59.656.656 0 00-.043-.249.653.653 0 00-.137-.211.6.6 0 00-.326-.176zm.025.63a.17.17 0 01-.047.125.14.14 0 01-.168.036.147.147 0 01-.049-.037.191.191 0 01-.047-.123c0-.045.016-.09.045-.123a.138.138 0 01.106-.047.15.15 0 01.114.047.195.195 0 01.036.056.184.184 0 01.01.066zm2.777-.63l.298-.58-.423-.212-.495.97a1.782 1.782 0 00-.12.272.672.672 0 00-.027.19.606.606 0 00.181.438.635.635 0 001.092-.442.64.64 0 00-.506-.635zm.024.63a.167.167 0 01-.046.125.146.146 0 01-.109.05.145.145 0 01-.108-.05.187.187 0 01-.002-.247.134.134 0 01.106-.047c.021 0 .042.003.061.011a.16.16 0 01.098.158zm3.355-1.066l-.844 1.731-.421-.205.655-1.343h-.709v-.468h1.325l-.006.285zm1.248-.33h-.454l-.799 1.19-.012.019v.413h.784v.369h.481v-.37h.16v-.463h-.16v-1.159zm-.678 1.158l.197-.29v.29h-.197zm-2.656-1.159a.635.635 0 00-.587.393.655.655 0 00-.047.243.635.635 0 00.507.635l-.299.58.423.211.495-.97c.047-.088.088-.178.12-.271a.633.633 0 00-.612-.82zm.159.64a.173.173 0 01-.046.123.147.147 0 01-.109.046.155.155 0 01-.11-.047.16.16 0 01-.046-.122.169.169 0 01.097-.16.161.161 0 01.062-.012c.019 0 .039.005.056.013a.13.13 0 01.048.035.164.164 0 01.036.058.172.172 0 01.012.067zm8.448-11.724l-.084.089h.543v.463h-1.391v-.268l.576-.589a1.52 1.52 0 00.256-.31.425.425 0 00.058-.19.159.159 0 00-.107-.157.182.182 0 00-.195.048.277.277 0 00-.059.175l-.002.072h-.482l.004-.077c0-.19.073-.371.204-.508a.672.672 0 01.486-.187.6.6 0 01.553.306.583.583 0 01.084.3.855.855 0 01-.098.378 1.973 1.973 0 01-.346.455zm-1.603-3.668a1.367 1.367 0 00-.164.76c-.009.194.019.39.083.574.047.128.132.24.243.32.114.073.247.11.382.106a.637.637 0 00.377-.106.695.695 0 00.239-.326 2.09 2.09 0 00.001-1.166.68.68 0 00-.246-.33.664.664 0 00-.381-.108.617.617 0 00-.534.276zm.685.295c.06.142.084.298.07.452a.96.96 0 01-.079.46.147.147 0 01-.134.088.163.163 0 01-.147-.096.86.86 0 01-.071-.432 1.659 1.659 0 01.033-.379.293.293 0 01.079-.154.16.16 0 01.106-.038c.036 0 .091.011.143.099zm-3.507-8.554a.635.635 0 00.586-.39.634.634 0 00.048-.244.639.639 0 00-.181-.46.598.598 0 00-.325-.175l.297-.58-.422-.213-.495.97a1.693 1.693 0 00-.12.272.624.624 0 00.154.628.61.61 0 00.458.192zm-.158-.64a.166.166 0 01.093-.157.13.13 0 01.057-.011.148.148 0 01.114.046.16.16 0 01.036.057.185.185 0 01.011.066.17.17 0 01-.012.067.164.164 0 01-.084.094.143.143 0 01-.168-.037.169.169 0 01-.047-.124zm1.562 11.102l-.495.97a1.693 1.693 0 00-.12.272.624.624 0 00.154.628.635.635 0 001.092-.442.639.639 0 00-.182-.46.595.595 0 00-.324-.176l.297-.58-.422-.212zm.15 1.423a.17.17 0 01-.012.067.165.165 0 01-.036.057.141.141 0 01-.216 0 .187.187 0 01-.002-.247.12.12 0 01.048-.035.13.13 0 01.057-.011.148.148 0 01.113.046.147.147 0 01.036.057.167.167 0 01.012.066zm2.646-6.432l-.494.97a1.792 1.792 0 00-.121.272.672.672 0 00-.027.189.606.606 0 00.182.439.633.633 0 001.091-.443.62.62 0 00-.181-.46.595.595 0 00-.324-.175l.297-.58-.423-.212zm.15 1.422a.17.17 0 01-.047.125.14.14 0 01-.168.036.182.182 0 01-.096-.16c0-.045.015-.09.045-.124a.138.138 0 01.106-.046.14.14 0 01.061.011c.021.008.038.02.052.036a.165.165 0 01.047.122zm-2.177 2.547l-.084.089h.543v.463h-1.391v-.268l.576-.589c.098-.092.185-.197.256-.31a.425.425 0 00.058-.19.159.159 0 00-.108-.157.184.184 0 00-.138.006.185.185 0 00-.056.042.279.279 0 00-.06.175l-.002.071h-.481l.004-.077c0-.189.073-.37.204-.507a.662.662 0 01.485-.188.6.6 0 01.554.306.603.603 0 01.084.302.855.855 0 01-.098.377 1.973 1.973 0 01-.346.455zm-2.092 4.207a.619.619 0 00.045.247c.03.079.077.15.137.21a.595.595 0 00.326.177l-.299.58.422.212.495-.972c.048-.086.087-.177.12-.27a.634.634 0 00-.479-.809.632.632 0 00-.659.268.637.637 0 00-.108.357zm.481.003a.18.18 0 01.048-.124.161.161 0 01.051-.036.145.145 0 01.118.001.14.14 0 01.047.035.17.17 0 01.048.124.169.169 0 01-.046.123.152.152 0 01-.218-.002.159.159 0 01-.036-.055.165.165 0 01-.012-.066zm1.513 1.397a.69.69 0 01-.44-.146.681.681 0 01-.242-.4l-.021-.09h.496l.02.04a.25.25 0 00.085.1.197.197 0 00.248-.028.242.242 0 00.005-.314.155.155 0 00-.201-.037.328.328 0 00-.087.07l-.03.03-.39-.087.245-1.13h.975v.465h-.601l-.037.162h.021a.61.61 0 01.459.19.633.633 0 01.139.22.65.65 0 01.044.258.684.684 0 01-.2.495.667.667 0 01-.488.202zm1.107-9.442a.663.663 0 00-.381-.109.622.622 0 00-.533.276 1.359 1.359 0 00-.165.76c-.008.195.02.39.083.574.047.129.132.24.243.32a.67.67 0 00.382.107.642.642 0 00.378-.107.7.7 0 00.238-.325 1.64 1.64 0 00.084-.586 1.631 1.631 0 00-.083-.58.68.68 0 00-.246-.33zm-.159.914a.973.973 0 01-.08.461.145.145 0 01-.134.088.164.164 0 01-.147-.096.87.87 0 01-.071-.433 1.657 1.657 0 01.033-.378.295.295 0 01.08-.154.157.157 0 01.105-.038c.037 0 .092.01.144.098a.97.97 0 01.07.452zm-1.181 10.849a.6.6 0 00.187-.45.64.64 0 00-.182-.46.598.598 0 00-.325-.176l.298-.58-.422-.212-.495.97a1.698 1.698 0 00-.12.271.64.64 0 00.018.427.646.646 0 00.832.347.64.64 0 00.209-.137zm-.606-.456a.17.17 0 01.045-.123.138.138 0 01.106-.046.148.148 0 01.113.047.161.161 0 01.036.056.15.15 0 01.011.066.17.17 0 01-.047.124.144.144 0 01-.217 0 .168.168 0 01-.047-.124zm3.884-2.462l-.084.089h.542v.463h-1.39v-.268l.576-.589c.098-.092.184-.196.255-.31a.414.414 0 00.059-.19.159.159 0 00-.107-.157.183.183 0 00-.138.006.176.176 0 00-.057.042.267.267 0 00-.059.175l-.003.072h-.481l.003-.077c0-.19.074-.371.205-.508a.666.666 0 01.485-.187.66.66 0 01.324.077.593.593 0 01.229.229.593.593 0 01.085.3.87.87 0 01-.098.378 1.947 1.947 0 01-.346.455zm-3.625-11.459l-.799 1.19-.012.02v.412h.784v.37h.481v-.37h.16v-.464h-.16V6.196h-.454zm-.225 1.158l.198-.29v.29h-.198zm3.053.354a.244.244 0 00.006-.314.157.157 0 00-.203-.036.364.364 0 00-.087.069l-.029.031-.39-.088.245-1.129h.975v.464h-.601l-.036.163h.02a.612.612 0 01.459.19.666.666 0 01.182.478.682.682 0 01-.687.697.694.694 0 01-.44-.146.686.686 0 01-.242-.401l-.02-.09h.495l.021.041a.24.24 0 00.084.1.198.198 0 00.248-.029zm-.273 10.499v-.37h.159v-.463h-.159v-1.158h-.454l-.8 1.19-.012.019v.413h.784v.37l.482-.001zm-.679-.833l.197-.29v.29h-.197zm-.558 3.408l.494-.971a1.71 1.71 0 00.12-.27.635.635 0 00-.018-.427.629.629 0 00-.135-.202.634.634 0 00-1.092.444.635.635 0 00.507.634l-.299.581.423.21zm-.15-1.422a.169.169 0 01.098-.16.153.153 0 01.061-.012.14.14 0 01.105.048.184.184 0 01.037.057.154.154 0 01.01.067.168.168 0 01-.045.123.147.147 0 01-.11.046.149.149 0 01-.109-.048.163.163 0 01-.047-.122zm-1.991-7.33a.425.425 0 00.058-.19.159.159 0 00-.107-.157.18.18 0 00-.195.048.278.278 0 00-.059.175l-.002.071h-.482l.004-.077c0-.189.073-.37.204-.507a.672.672 0 01.486-.188.6.6 0 01.553.306.593.593 0 01.084.302.855.855 0 01-.098.377 1.976 1.976 0 01-.346.455l-.084.089h.543v.463h-1.391v-.268l.576-.589c.098-.092.185-.197.256-.31zm.846-2.505a.425.425 0 00.058-.19.177.177 0 00-.01-.065.17.17 0 00-.037-.054.178.178 0 00-.254.01.262.262 0 00-.06.176l-.002.071h-.481l.003-.077c0-.189.073-.37.204-.507a.671.671 0 01.486-.188.66.66 0 01.324.078.593.593 0 01.229.228.604.604 0 01.085.301.857.857 0 01-.099.377 1.944 1.944 0 01-.345.456l-.084.088h.542v.464h-1.391v-.268l.576-.59a1.55 1.55 0 00.256-.31zm-.806 13.762l.495-.971a1.78 1.78 0 00.12-.27.634.634 0 00-.479-.81.633.633 0 00-.659.269.637.637 0 00-.108.356.618.618 0 00.045.248c.03.078.077.15.137.21a.595.595 0 00.326.177l-.299.58.422.21zm-.15-1.422a.18.18 0 01.048-.124.163.163 0 01.051-.036.145.145 0 01.118 0 .14.14 0 01.047.036.17.17 0 01.048.125.169.169 0 01-.046.122.146.146 0 01-.109.046.152.152 0 01-.109-.048.16.16 0 01-.036-.056.164.164 0 01-.012-.065zm1.907-8.11h.975v.465h-.6l-.037.162h.02a.618.618 0 01.599.41.67.67 0 01.043.258.683.683 0 01-.688.697.692.692 0 01-.44-.146.692.692 0 01-.243-.4l-.019-.09h.495l.021.04a.24.24 0 00.084.1.196.196 0 00.249-.028.254.254 0 00.06-.156.25.25 0 00-.055-.158.157.157 0 00-.202-.037.327.327 0 00-.087.07l-.03.03-.39-.087.245-1.13zm1.83-9.55h-.71v-.468h1.325l-.006.286-.844 1.73-.421-.204.656-1.344zm-1.491 18.398l-.005-.077h.48l.009.062c.005.061.031.12.074.164a.22.22 0 00.288-.008.197.197 0 00.044-.067.199.199 0 00.012-.08.208.208 0 00-.024-.077.195.195 0 00-.054-.06.426.426 0 00-.262-.072h-.073v-.435l.067-.005a.471.471 0 00.159-.032.154.154 0 00.064-.053.119.119 0 00.022-.065.095.095 0 00-.007-.038.095.095 0 00-.062-.053.109.109 0 00-.044-.006.145.145 0 00-.089.03.153.153 0 00-.056.079l-.016.051h-.467l.012-.083a.606.606 0 01.627-.553.599.599 0 01.422.16.512.512 0 01.172.388.454.454 0 01-.078.26.491.491 0 01-.095.106.535.535 0 01.159.14.548.548 0 01.107.33.612.612 0 01-.202.463.703.703 0 01-.504.19.66.66 0 01-.478-.179.691.691 0 01-.202-.48zm2.093-3.552l-.844 1.73-.421-.204.656-1.343h-.709v-.469h1.325l-.007.286zm-2.003-14.846h-.71v-.468h1.326l-.007.286-.844 1.73-.421-.204.656-1.344zm2.518 2.763h-.482l.004-.077c0-.19.072-.37.203-.507a.681.681 0 01.487-.188.658.658 0 01.323.078.596.596 0 01.23.228.603.603 0 01.084.301.869.869 0 01-.098.377 1.975 1.975 0 01-.346.456l-.084.088h.542v.464h-1.39V7.92l.576-.59a1.56 1.56 0 00.256-.31.425.425 0 00.058-.19.16.16 0 00-.047-.12.189.189 0 00-.06-.036.174.174 0 00-.138.006.176.176 0 00-.057.041.267.267 0 00-.059.176l-.002.071zm-3.889-4.269a.248.248 0 00.06-.156.25.25 0 00-.055-.158.157.157 0 00-.202-.036.328.328 0 00-.087.069l-.03.03-.39-.087.245-1.129h.976v.464h-.601l-.037.163h.02a.615.615 0 01.459.189.665.665 0 01.183.478.683.683 0 01-.687.697.694.694 0 01-.441-.146.686.686 0 01-.242-.4l-.02-.09h.495l.021.04a.24.24 0 00.084.1.2.2 0 00.249-.028zm.259 1.102a.665.665 0 00-.381-.11.616.616 0 00-.533.277 1.367 1.367 0 00-.165.76c-.008.195.02.39.083.574.047.129.132.24.243.32.114.073.247.11.383.106a.64.64 0 00.377-.106.7.7 0 00.238-.326 1.64 1.64 0 00.084-.585 1.631 1.631 0 00-.083-.58.674.674 0 00-.246-.33zm-.16.914a.972.972 0 01-.078.46.148.148 0 01-.135.088.163.163 0 01-.147-.095.87.87 0 01-.071-.433 1.716 1.716 0 01.033-.379.302.302 0 01.08-.153.159.159 0 01.105-.039c.037 0 .092.011.144.099.06.143.083.298.069.452zm1.17 3.518a.63.63 0 00.634-.635.62.62 0 00-.18-.46.601.601 0 00-.325-.175l.297-.58-.423-.212-.494.97a1.694 1.694 0 00-.12.272.638.638 0 00.019.426.612.612 0 00.135.202.602.602 0 00.457.192zm-.158-.64a.174.174 0 01.045-.123.135.135 0 01.106-.046.15.15 0 01.114.047.16.16 0 01.046.122.17.17 0 01-.011.067.164.164 0 01-.085.094.141.141 0 01-.167-.037.15.15 0 01-.036-.057.17.17 0 01-.012-.067zm-4.891 18.173a.628.628 0 00.587-.391.635.635 0 00.048-.243.639.639 0 00-.181-.46.602.602 0 00-.325-.176l.297-.58-.422-.212-.495.97a1.693 1.693 0 00-.12.272.624.624 0 00.154.628.609.609 0 00.457.192zm-.157-.64a.166.166 0 01.093-.157.13.13 0 01.057-.012.148.148 0 01.113.047.163.163 0 01.048.122.17.17 0 01-.012.067.153.153 0 01-.036.058.141.141 0 01-.216 0 .169.169 0 01-.047-.124zm-.161-13.875h.625v1.946h-.485v-1.478h-.429l.289-.468zm1.953-5.01h1.325l-.007.286-.843 1.731-.421-.205.654-1.343h-.708V6.24zm3.418 15.315l-.843 1.73-.421-.204.655-1.343h-.709v-.469h1.326l-.008.286zm-4.265-10.305h1.326l-.007.285-.844 1.731-.421-.205.656-1.343h-.71v-.468zm4.097 14.47h-1.391v-.268l.576-.59c.098-.091.185-.196.256-.31a.425.425 0 00.058-.19.159.159 0 00-.108-.156.184.184 0 00-.138.006.182.182 0 00-.056.042.279.279 0 00-.06.175l-.002.071h-.481l.004-.077c0-.189.073-.37.204-.507a.66.66 0 01.485-.188.6.6 0 01.554.306.602.602 0 01.084.302.855.855 0 01-.098.377 1.976 1.976 0 01-.346.455l-.084.088h.543v.464zm-4.171-9.949l-.421-.205.655-1.343h-.709v-.468h1.325l-.007.285-.843 1.731zm1.611-.07h.481v-.37h.16v-.463h-.16V13.71h-.454l-.799 1.19-.013.019v.413h.785v.369zm-.197-.833l.197-.29v.29h-.197zM56.592.089a3.05 3.05 0 012.252.952 3.162 3.162 0 01.939 2.308 3.13 3.13 0 01-.93 2.28 3.02 3.02 0 01-2.225.944 3.059 3.059 0 01-2.27-.961 3.21 3.21 0 01-.94-2.336 3.084 3.084 0 01.93-2.253 3.053 3.053 0 012.244-.934z" fill="#E3CB75"/></svg>